<?xml version="1.0" encoding="UTF-8" standalone="no"?>
<!DOCTYPE svg PUBLIC "-//W3C//DTD SVG 1.1//EN"
 "http://www.w3.org/Graphics/SVG/1.1/DTD/svg11.dtd">
<!-- Generated by graphviz version 14.1.5 (20260411.2331)
 -->
<!-- Title: tm Pages: 1 -->
<svg width="1876pt" height="863pt"
 viewBox="0.00 0.00 1876.00 863.00" xmlns="http://www.w3.org/2000/svg" xmlns:xlink="http://www.w3.org/1999/xlink">
<g id="graph0" class="graph" transform="scale(1 1) rotate(0) translate(4 859)">
<title>tm</title>
<polygon fill="white" stroke="none" points="-4,4 -4,-859 1871.84,-859 1871.84,4 -4,4"/>
<g id="clust1" class="cluster">
<title>cluster_boundary_GCPdataprodProject_88f2d9c06f</title>
<polygon fill="none" stroke="#ee2c2c" stroke-dasharray="5,2" points="273.38,-8 273.38,-540 1610.21,-540 1610.21,-8 273.38,-8"/>
<text xml:space="preserve" text-anchor="start" x="909.55" y="-527.5" font-family="Arial" font-style="italic" font-size="10.00">GCP data&#45;prod</text>
<text xml:space="preserve" text-anchor="start" x="926.42" y="-517.5" font-family="Arial" font-style="italic" font-size="10.00">Project</text>
</g>
<g id="clust2" class="cluster">
<title>cluster_boundary_Ingestion_579e9aae81</title>
<polygon fill="none" stroke="#ee2c2c" stroke-dasharray="5,2" points="281.38,-16 281.38,-208 1027.97,-208 1027.97,-16 281.38,-16"/>
<text xml:space="preserve" text-anchor="start" x="634.8" y="-195.5" font-family="Arial" font-style="italic" font-size="10.00">Ingestion</text>
</g>
<g id="clust3" class="cluster">
<title>cluster_boundary_Warehouse_f2eb7a3ff7</title>
<polygon fill="none" stroke="#ee2c2c" stroke-dasharray="5,2" points="883.8,-244 883.8,-504 1602.21,-504 1602.21,-244 883.8,-244"/>
<text xml:space="preserve" text-anchor="start" x="1218.63" y="-491.5" font-family="Arial" font-style="italic" font-size="10.00">Warehouse</text>
</g>
<g id="clust4" class="cluster">
<title>cluster_boundary_MarketingPartner_f8af758679</title>
<polygon fill="none" stroke="#ee2c2c" stroke-dasharray="5,2" points="1762.96,-276 1762.96,-392 1859.84,-392 1859.84,-276 1762.96,-276"/>
<text xml:space="preserve" text-anchor="start" x="1772.78" y="-379.5" font-family="Arial" font-style="italic" font-size="10.00">Marketing Partner</text>
</g>
<g id="clust5" class="cluster">
<title>cluster_boundary_ProductEnvironment_acf3059e70</title>
<polygon fill="none" stroke="#ee2c2c" stroke-dasharray="5,2" points="8,-35 8,-197 141.63,-197 141.63,-35 8,-35"/>
<text xml:space="preserve" text-anchor="start" x="57.94" y="-184.5" font-family="Arial" font-style="italic" font-size="10.00">Product</text>
<text xml:space="preserve" text-anchor="start" x="47.44" y="-174.5" font-family="Arial" font-style="italic" font-size="10.00">Environment</text>
</g>
<g id="clust6" class="cluster">
<title>cluster_boundary_Workforce_d2006ce1bb</title>
<polygon fill="none" stroke="#ee2c2c" stroke-dasharray="5,2" points="571.4,-548 571.4,-847 692.28,-847 692.28,-548 571.4,-548"/>
<text xml:space="preserve" text-anchor="start" x="609.34" y="-834.5" font-family="Arial" font-style="italic" font-size="10.00">Workforce</text>
</g>
<!-- server_DatastreamCDC_9345ab4c19 -->
<g id="node1" class="node">
<title>server_DatastreamCDC_9345ab4c19</title>
<ellipse fill="none" stroke="black" cx="356.8" cy="-102" rx="67.42" ry="67.42"/>
<text xml:space="preserve" text-anchor="middle" x="356.8" y="-96.58" font-family="Arial" font-size="14.00">Datastream (CDC)</text>
</g>
<!-- datastore_GCSRawZone_86e4604564 -->
<g id="node2" class="node">
<title>datastore_GCSRawZone_86e4604564</title>
<path fill="none" stroke="black" d="M687.47,-116.73C687.47,-118.53 662.54,-120 631.84,-120 601.15,-120 576.22,-118.53 576.22,-116.73 576.22,-116.73 576.22,-87.27 576.22,-87.27 576.22,-85.47 601.15,-84 631.84,-84 662.54,-84 687.47,-85.47 687.47,-87.27 687.47,-87.27 687.47,-116.73 687.47,-116.73"/>
<path fill="none" stroke="black" d="M687.47,-116.73C687.47,-114.92 662.54,-113.45 631.84,-113.45 601.15,-113.45 576.22,-114.92 576.22,-116.73"/>
<text xml:space="preserve" text-anchor="middle" x="631.84" y="-96.58" font-family="Arial" font-size="14.00">GCS Raw Zone</text>
</g>
<!-- server_DatastreamCDC_9345ab4c19&#45;&gt;datastore_GCSRawZone_86e4604564 -->
<g id="edge2" class="edge">
<title>server_DatastreamCDC_9345ab4c19&#45;&gt;datastore_GCSRawZone_86e4604564</title>
<path fill="none" stroke="black" d="M424.59,-102C467.11,-102 521.97,-102 564.41,-102"/>
<polygon fill="black" stroke="black" points="564.24,-105.5 574.24,-102 564.24,-98.5 564.24,-105.5"/>
<text xml:space="preserve" text-anchor="middle" x="500.22" y="-119.1" font-family="Arial" font-size="12.00">(2) Write Avro</text>
<text xml:space="preserve" text-anchor="middle" x="500.22" y="-104.85" font-family="Arial" font-size="12.00">files</text>
</g>
<!-- process_DataflowCurationPipeline_b2e5892d06 -->
<g id="node3" class="node">
<title>process_DataflowCurationPipeline_b2e5892d06</title>
<ellipse fill="none" stroke="black" cx="942.09" cy="-102" rx="77.87" ry="77.87"/>
<text xml:space="preserve" text-anchor="middle" x="942.09" y="-104.45" font-family="Arial" font-size="14.00">Dataflow Curation</text>
<text xml:space="preserve" text-anchor="middle" x="942.09" y="-88.7" font-family="Arial" font-size="14.00">Pipeline</text>
</g>
<!-- datastore_GCSRawZone_86e4604564&#45;&gt;process_DataflowCurationPipeline_b2e5892d06 -->
<g id="edge3" class="edge">
<title>datastore_GCSRawZone_86e4604564&#45;&gt;process_DataflowCurationPipeline_b2e5892d06</title>
<path fill="none" stroke="black" d="M687.95,-102C733.61,-102 799.37,-102 852.42,-102"/>
<polygon fill="black" stroke="black" points="852.37,-105.5 862.37,-102 852.37,-98.5 852.37,-105.5"/>
<text xml:space="preserve" text-anchor="middle" x="775.84" y="-104.85" font-family="Arial" font-size="12.00">(3) Read new files</text>
</g>
<!-- datastore_BigQueryCuratedDatasets_990b886585 -->
<g id="node4" class="node">
<title>datastore_BigQueryCuratedDatasets_990b886585</title>
<path fill="none" stroke="black" d="M1316.22,-346.22C1316.22,-348.94 1288.26,-351.16 1253.84,-351.16 1219.42,-351.16 1191.47,-348.94 1191.47,-346.22 1191.47,-346.22 1191.47,-301.78 1191.47,-301.78 1191.47,-299.06 1219.42,-296.84 1253.84,-296.84 1288.26,-296.84 1316.22,-299.06 1316.22,-301.78 1316.22,-301.78 1316.22,-346.22 1316.22,-346.22"/>
<path fill="none" stroke="black" d="M1316.22,-346.22C1316.22,-343.49 1288.26,-341.28 1253.84,-341.28 1219.42,-341.28 1191.47,-343.49 1191.47,-346.22"/>
<text xml:space="preserve" text-anchor="middle" x="1253.84" y="-326.45" font-family="Arial" font-size="14.00">BigQuery Curated</text>
<text xml:space="preserve" text-anchor="middle" x="1253.84" y="-310.7" font-family="Arial" font-size="14.00">Datasets</text>
</g>
<!-- process_DataflowCurationPipeline_b2e5892d06&#45;&gt;datastore_BigQueryCuratedDatasets_990b886585 -->
<g id="edge4" class="edge">
<title>process_DataflowCurationPipeline_b2e5892d06&#45;&gt;datastore_BigQueryCuratedDatasets_990b886585</title>
<path fill="none" stroke="black" d="M1005.78,-146.93C1064.98,-189.36 1152.43,-252.04 1205.86,-290.33"/>
<polygon fill="black" stroke="black" points="1203.7,-293.09 1213.87,-296.07 1207.78,-287.4 1203.7,-293.09"/>
<text xml:space="preserve" text-anchor="middle" x="1105.72" y="-262.96" font-family="Arial" font-size="12.00">(4) Load curated</text>
<text xml:space="preserve" text-anchor="middle" x="1105.72" y="-248.71" font-family="Arial" font-size="12.00">tables</text>
</g>
<!-- server_AnalyticsHubListing_a22abb380b -->
<g id="node7" class="node">
<title>server_AnalyticsHubListing_a22abb380b</title>
<ellipse fill="none" stroke="black" cx="1533.84" cy="-324" rx="60.37" ry="60.37"/>
<text xml:space="preserve" text-anchor="middle" x="1533.84" y="-326.45" font-family="Arial" font-size="14.00">Analytics Hub</text>
<text xml:space="preserve" text-anchor="middle" x="1533.84" y="-310.7" font-family="Arial" font-size="14.00">Listing</text>
</g>
<!-- datastore_BigQueryCuratedDatasets_990b886585&#45;&gt;server_AnalyticsHubListing_a22abb380b -->
<g id="edge9" class="edge">
<title>datastore_BigQueryCuratedDatasets_990b886585&#45;&gt;server_AnalyticsHubListing_a22abb380b</title>
<path fill="none" stroke="black" d="M1316.54,-324C1359.51,-324 1416.93,-324 1461.81,-324"/>
<polygon fill="black" stroke="black" points="1461.71,-327.5 1471.71,-324 1461.71,-320.5 1461.71,-327.5"/>
<text xml:space="preserve" text-anchor="middle" x="1394.84" y="-341.1" font-family="Arial" font-size="12.00">(9) Publish</text>
<text xml:space="preserve" text-anchor="middle" x="1394.84" y="-326.85" font-family="Arial" font-size="12.00">audience view</text>
</g>
<!-- server_Looker_9df04f8dae -->
<g id="node5" class="node">
<title>server_Looker_9df04f8dae</title>
<ellipse fill="none" stroke="black" cx="942.09" cy="-450" rx="25.79" ry="25.79"/>
<text xml:space="preserve" text-anchor="middle" x="942.09" y="-444.57" font-family="Arial" font-size="14.00">Looker</text>
</g>
<!-- server_Looker_9df04f8dae&#45;&gt;datastore_BigQueryCuratedDatasets_990b886585 -->
<g id="edge6" class="edge">
<title>server_Looker_9df04f8dae&#45;&gt;datastore_BigQueryCuratedDatasets_990b886585</title>
<path fill="none" stroke="black" d="M966.37,-440.53C1011.27,-422.27 1111.49,-381.5 1180.62,-353.38"/>
<polygon fill="black" stroke="black" points="1181.67,-356.73 1189.61,-349.72 1179.03,-350.25 1181.67,-356.73"/>
<text xml:space="preserve" text-anchor="middle" x="1105.72" y="-419.09" font-family="Arial" font-size="12.00">(6) Run model</text>
<text xml:space="preserve" text-anchor="middle" x="1105.72" y="-404.84" font-family="Arial" font-size="12.00">queries</text>
</g>
<!-- process_VertexAIWorkbenchNotebooks_65d0d57a00 -->
<g id="node6" class="node">
<title>process_VertexAIWorkbenchNotebooks_65d0d57a00</title>
<ellipse fill="none" stroke="black" cx="942.09" cy="-302" rx="50.3" ry="50.3"/>
<text xml:space="preserve" text-anchor="middle" x="942.09" y="-312.32" font-family="Arial" font-size="14.00">Vertex AI</text>
<text xml:space="preserve" text-anchor="middle" x="942.09" y="-296.57" font-family="Arial" font-size="14.00">Workbench</text>
<text xml:space="preserve" text-anchor="middle" x="942.09" y="-280.82" font-family="Arial" font-size="14.00">Notebooks</text>
</g>
<!-- process_VertexAIWorkbenchNotebooks_65d0d57a00&#45;&gt;datastore_BigQueryCuratedDatasets_990b886585 -->
<g id="edge8" class="edge">
<title>process_VertexAIWorkbenchNotebooks_65d0d57a00&#45;&gt;datastore_BigQueryCuratedDatasets_990b886585</title>
<path fill="none" stroke="black" d="M992.52,-305.51C1043.04,-309.1 1122.07,-314.71 1179.8,-318.81"/>
<polygon fill="black" stroke="black" points="1179.32,-322.29 1189.54,-319.5 1179.82,-315.3 1179.32,-322.29"/>
<text xml:space="preserve" text-anchor="middle" x="1105.72" y="-333.36" font-family="Arial" font-size="12.00">(8) Query / export</text>
<text xml:space="preserve" text-anchor="middle" x="1105.72" y="-319.11" font-family="Arial" font-size="12.00">tables</text>
</g>
<!-- externalentity_PartnerGCPProject_c6f87088c2 -->
<g id="node8" class="node">
<title>externalentity_PartnerGCPProject_c6f87088c2</title>
<polygon fill="none" stroke="black" points="1851.84,-364.44 1770.96,-364.44 1770.96,-283.56 1851.84,-283.56 1851.84,-364.44"/>
<text xml:space="preserve" text-anchor="middle" x="1811.4" y="-326.45" font-family="Arial" font-size="14.00">Partner GCP</text>
<text xml:space="preserve" text-anchor="middle" x="1811.4" y="-310.7" font-family="Arial" font-size="14.00">Project</text>
</g>
<!-- server_AnalyticsHubListing_a22abb380b&#45;&gt;externalentity_PartnerGCPProject_c6f87088c2 -->
<g id="edge10" class="edge">
<title>server_AnalyticsHubListing_a22abb380b&#45;&gt;externalentity_PartnerGCPProject_c6f87088c2</title>
<path fill="none" stroke="black" d="M1594.63,-324C1643.81,-324 1712.75,-324 1759.36,-324"/>
<polygon fill="black" stroke="black" points="1759.19,-327.5 1769.19,-324 1759.19,-320.5 1759.19,-327.5"/>
<text xml:space="preserve" text-anchor="middle" x="1682.59" y="-355.35" font-family="Arial" font-size="12.00">(10) Partner</text>
<text xml:space="preserve" text-anchor="middle" x="1682.59" y="-341.1" font-family="Arial" font-size="12.00">subscribes (linked</text>
<text xml:space="preserve" text-anchor="middle" x="1682.59" y="-326.85" font-family="Arial" font-size="12.00">dataset)</text>
</g>
<!-- externalentity_ProductDatabasesCloudSQL_2c440ebe53 -->
<g id="node9" class="node">
<title>externalentity_ProductDatabasesCloudSQL_2c440ebe53</title>
<polygon fill="none" stroke="black" points="133.63,-160.81 16,-160.81 16,-43.19 133.63,-43.19 133.63,-160.81"/>
<text xml:space="preserve" text-anchor="middle" x="74.82" y="-104.45" font-family="Arial" font-size="14.00">Product Databases</text>
<text xml:space="preserve" text-anchor="middle" x="74.82" y="-88.7" font-family="Arial" font-size="14.00">(Cloud SQL)</text>
</g>
<!-- externalentity_ProductDatabasesCloudSQL_2c440ebe53&#45;&gt;server_DatastreamCDC_9345ab4c19 -->
<g id="edge1" class="edge">
<title>externalentity_ProductDatabasesCloudSQL_2c440ebe53&#45;&gt;server_DatastreamCDC_9345ab4c19</title>
<path fill="none" stroke="black" d="M133.83,-102C175.47,-102 232.05,-102 277.66,-102"/>
<polygon fill="black" stroke="black" points="277.5,-105.5 287.5,-102 277.5,-98.5 277.5,-105.5"/>
<text xml:space="preserve" text-anchor="middle" x="211.51" y="-133.35" font-family="Arial" font-size="12.00">(1) Replicate</text>
<text xml:space="preserve" text-anchor="middle" x="211.51" y="-119.1" font-family="Arial" font-size="12.00">binlog (private</text>
<text xml:space="preserve" text-anchor="middle" x="211.51" y="-104.85" font-family="Arial" font-size="12.00">connectivity)</text>
</g>
<!-- actor_BusinessAnalyst_0291419f72 -->
<g id="node10" class="node">
<title>actor_BusinessAnalyst_0291419f72</title>
<polygon fill="none" stroke="black" points="684.28,-819.44 579.4,-819.44 579.4,-714.56 684.28,-714.56 684.28,-819.44"/>
<text xml:space="preserve" text-anchor="middle" x="631.84" y="-761.58" font-family="Arial" font-size="14.00">Business Analyst</text>
</g>
<!-- actor_BusinessAnalyst_0291419f72&#45;&gt;server_Looker_9df04f8dae -->
<g id="edge5" class="edge">
<title>actor_BusinessAnalyst_0291419f72&#45;&gt;server_Looker_9df04f8dae</title>
<path fill="none" stroke="black" d="M684.09,-714.3C750.9,-645.59 865.19,-528.06 915.75,-476.06"/>
<polygon fill="black" stroke="black" points="918.07,-478.7 922.53,-469.09 913.05,-473.82 918.07,-478.7"/>
<text xml:space="preserve" text-anchor="middle" x="775.84" y="-681.56" font-family="Arial" font-size="12.00">(5) View</text>
<text xml:space="preserve" text-anchor="middle" x="775.84" y="-667.31" font-family="Arial" font-size="12.00">dashboards</text>
</g>
<!-- actor_DataScientist_c76a0a7067 -->
<g id="node11" class="node">
<title>actor_DataScientist_c76a0a7067</title>
<polygon fill="none" stroke="black" points="674.91,-642.07 588.78,-642.07 588.78,-555.93 674.91,-555.93 674.91,-642.07"/>
<text xml:space="preserve" text-anchor="middle" x="631.84" y="-593.58" font-family="Arial" font-size="14.00">Data Scientist</text>
</g>
<!-- actor_DataScientist_c76a0a7067&#45;&gt;process_VertexAIWorkbenchNotebooks_65d0d57a00 -->
<g id="edge7" class="edge">
<title>actor_DataScientist_c76a0a7067&#45;&gt;process_VertexAIWorkbenchNotebooks_65d0d57a00</title>
<path fill="none" stroke="black" d="M662.27,-555.45C679.87,-530.77 703.44,-499.98 727.47,-475.25 778.89,-422.34 846.06,-370.19 891.23,-337.15"/>
<polygon fill="black" stroke="black" points="893.27,-340 899.3,-331.29 889.15,-334.33 893.27,-340"/>
<text xml:space="preserve" text-anchor="middle" x="775.84" y="-506.6" font-family="Arial" font-size="12.00">(7) Run notebook</text>
<text xml:space="preserve" text-anchor="middle" x="775.84" y="-492.35" font-family="Arial" font-size="12.00">(local gcloud with</text>
<text xml:space="preserve" text-anchor="middle" x="775.84" y="-478.1" font-family="Arial" font-size="12.00">SA key)</text>
</g>
</g>
</svg>
