<?xml version="1.0" encoding="UTF-8" standalone="no"?>
<!DOCTYPE svg PUBLIC "-//W3C//DTD SVG 1.1//EN"
 "http://www.w3.org/Graphics/SVG/1.1/DTD/svg11.dtd">
<!-- Generated by graphviz version 14.1.5 (20260411.2331)
 -->
<!-- Title: tm Pages: 1 -->
<svg width="1068pt" height="2016pt"
 viewBox="0.00 0.00 1068.00 2016.00" xmlns="http://www.w3.org/2000/svg" xmlns:xlink="http://www.w3.org/1999/xlink">
<g id="graph0" class="graph" transform="scale(1 1) rotate(0) translate(4 2012)">
<title>tm</title>
<polygon fill="white" stroke="none" points="-4,4 -4,-2012 1064.37,-2012 1064.37,4 -4,4"/>
<g id="clust1" class="cluster">
<title>cluster_boundary_AgentPlatform_f2eb7a3ff7</title>
<polygon fill="none" stroke="#ee2c2c" stroke-dasharray="5,2" points="8,-420 8,-1658 508.83,-1658 508.83,-420 8,-420"/>
<text xml:space="preserve" text-anchor="start" x="225.79" y="-1645.5" font-family="Arial" font-style="italic" font-size="10.00">Agent Platform</text>
</g>
<g id="clust2" class="cluster">
<title>cluster_boundary_MCPToolServers_d2006ce1bb</title>
<polygon fill="none" stroke="#ee2c2c" stroke-dasharray="5,2" points="320.6,-428 320.6,-1270 500.83,-1270 500.83,-428 320.6,-428"/>
<text xml:space="preserve" text-anchor="start" x="370.97" y="-1257.5" font-family="Arial" font-style="italic" font-size="10.00">MCP Tool Servers</text>
</g>
<g id="clust3" class="cluster">
<title>cluster_boundary_Internet_acf3059e70</title>
<polygon fill="none" stroke="#ee2c2c" stroke-dasharray="5,2" points="359.28,-1878 359.28,-2000 462.16,-2000 462.16,-1878 359.28,-1878"/>
<text xml:space="preserve" text-anchor="start" x="394.22" y="-1987.5" font-family="Arial" font-style="italic" font-size="10.00">Internet</text>
</g>
<g id="clust4" class="cluster">
<title>cluster_boundary_ModelProvider_579e9aae81</title>
<polygon fill="none" stroke="#ee2c2c" stroke-dasharray="5,2" points="346.9,-1694 346.9,-1842 474.53,-1842 474.53,-1694 346.9,-1694"/>
<text xml:space="preserve" text-anchor="start" x="378.09" y="-1829.5" font-family="Arial" font-style="italic" font-size="10.00">Model Provider</text>
</g>
<g id="clust5" class="cluster">
<title>cluster_boundary_Production_f8af758679</title>
<polygon fill="none" stroke="#ee2c2c" stroke-dasharray="5,2" points="660.08,-626 660.08,-1182 1052.37,-1182 1052.37,-626 660.08,-626"/>
<text xml:space="preserve" text-anchor="start" x="832.98" y="-1169.5" font-family="Arial" font-style="italic" font-size="10.00">Production</text>
</g>
<g id="clust6" class="cluster">
<title>cluster_boundary_SaaSSlackPagerDutyGitHub_88f2d9c06f</title>
<polygon fill="none" stroke="#ee2c2c" stroke-dasharray="5,2" points="21.61,-8 21.61,-412 459.53,-412 459.53,-8 21.61,-8"/>
<text xml:space="preserve" text-anchor="start" x="211.7" y="-399.5" font-family="Arial" font-style="italic" font-size="10.00">SaaS (Slack,</text>
<text xml:space="preserve" text-anchor="start" x="197.82" y="-389.5" font-family="Arial" font-style="italic" font-size="10.00">PagerDuty, GitHub)</text>
</g>
<!-- server_ObservabilityMCPServer_a22abb380b -->
<g id="node1" class="node">
<title>server_ObservabilityMCPServer_a22abb380b</title>
<ellipse fill="none" stroke="black" cx="410.72" cy="-1160" rx="82.12" ry="82.12"/>
<text xml:space="preserve" text-anchor="middle" x="410.72" y="-1162.45" font-family="Arial" font-size="14.00">Observability MCP</text>
<text xml:space="preserve" text-anchor="middle" x="410.72" y="-1146.7" font-family="Arial" font-size="14.00">Server</text>
</g>
<!-- server_AgentRuntimeplannerexecutor_b2e5892d06 -->
<g id="node5" class="node">
<title>server_AgentRuntimeplannerexecutor_b2e5892d06</title>
<ellipse fill="none" stroke="black" cx="81.68" cy="-1054" rx="65.68" ry="65.68"/>
<text xml:space="preserve" text-anchor="middle" x="81.68" y="-1064.33" font-family="Arial" font-size="14.00">Agent Runtime</text>
<text xml:space="preserve" text-anchor="middle" x="81.68" y="-1048.58" font-family="Arial" font-size="14.00">(planner +</text>
<text xml:space="preserve" text-anchor="middle" x="81.68" y="-1032.83" font-family="Arial" font-size="14.00">executor)</text>
</g>
<!-- server_ObservabilityMCPServer_a22abb380b&#45;&gt;server_AgentRuntimeplannerexecutor_b2e5892d06 -->
<g id="edge10" class="edge">
<title>server_ObservabilityMCPServer_a22abb380b&#45;&gt;server_AgentRuntimeplannerexecutor_b2e5892d06</title>
<path fill="none" stroke="black" d="M360.54,-1094.62C340.77,-1073.53 316.11,-1052.72 288.6,-1041.5 247.07,-1024.56 196.9,-1027.19 156.47,-1034.29"/>
<polygon fill="black" stroke="black" points="156,-1030.81 146.83,-1036.11 157.31,-1037.69 156,-1030.81"/>
<text xml:space="preserve" text-anchor="middle" x="237.98" y="-1058.6" font-family="Arial" font-size="12.00">(11) Tool result:</text>
<text xml:space="preserve" text-anchor="middle" x="237.98" y="-1044.35" font-family="Arial" font-size="12.00">log lines</text>
</g>
<!-- server_KubernetesMCPServer_4c7b12dcc9 -->
<g id="node2" class="node">
<title>server_KubernetesMCPServer_4c7b12dcc9</title>
<ellipse fill="none" stroke="black" cx="410.72" cy="-931" rx="75.22" ry="75.22"/>
<text xml:space="preserve" text-anchor="middle" x="410.72" y="-933.45" font-family="Arial" font-size="14.00">Kubernetes MCP</text>
<text xml:space="preserve" text-anchor="middle" x="410.72" y="-917.7" font-family="Arial" font-size="14.00">Server</text>
</g>
<!-- server_EKSAPIprod_21633ce29f -->
<g id="node13" class="node">
<title>server_EKSAPIprod_21633ce29f</title>
<ellipse fill="none" stroke="black" cx="752.85" cy="-931" rx="55.15" ry="55.15"/>
<text xml:space="preserve" text-anchor="middle" x="752.85" y="-925.58" font-family="Arial" font-size="14.00">EKS API (prod)</text>
</g>
<!-- server_KubernetesMCPServer_4c7b12dcc9&#45;&gt;server_EKSAPIprod_21633ce29f -->
<g id="edge14" class="edge">
<title>server_KubernetesMCPServer_4c7b12dcc9&#45;&gt;server_EKSAPIprod_21633ce29f</title>
<path fill="none" stroke="black" d="M486.36,-931C546,-931 628.8,-931 686,-931"/>
<polygon fill="black" stroke="black" points="685.92,-934.5 695.92,-931 685.92,-927.5 685.92,-934.5"/>
<text xml:space="preserve" text-anchor="middle" x="580.46" y="-948.1" font-family="Arial" font-size="12.00">(15) Kubernetes</text>
<text xml:space="preserve" text-anchor="middle" x="580.46" y="-933.85" font-family="Arial" font-size="12.00">API call</text>
</g>
<!-- server_AWSMCPServer_96ac87fabf -->
<g id="node3" class="node">
<title>server_AWSMCPServer_96ac87fabf</title>
<ellipse fill="none" stroke="black" cx="410.72" cy="-718" rx="65.67" ry="65.67"/>
<text xml:space="preserve" text-anchor="middle" x="410.72" y="-712.58" font-family="Arial" font-size="14.00">AWS MCP Server</text>
</g>
<!-- server_AWSControlPlaneprod_092386898c -->
<g id="node14" class="node">
<title>server_AWSControlPlaneprod_092386898c</title>
<ellipse fill="none" stroke="black" cx="752.85" cy="-719" rx="84.77" ry="84.77"/>
<text xml:space="preserve" text-anchor="middle" x="752.85" y="-721.45" font-family="Arial" font-size="14.00">AWS Control Plane</text>
<text xml:space="preserve" text-anchor="middle" x="752.85" y="-705.7" font-family="Arial" font-size="14.00">(prod)</text>
</g>
<!-- server_AWSMCPServer_96ac87fabf&#45;&gt;server_AWSControlPlaneprod_092386898c -->
<g id="edge16" class="edge">
<title>server_AWSMCPServer_96ac87fabf&#45;&gt;server_AWSControlPlaneprod_092386898c</title>
<path fill="none" stroke="black" d="M476.5,-718.19C527.36,-718.34 598.95,-718.55 656.38,-718.72"/>
<polygon fill="black" stroke="black" points="656.14,-722.22 666.15,-718.75 656.16,-715.22 656.14,-722.22"/>
<text xml:space="preserve" text-anchor="middle" x="580.46" y="-721.47" font-family="Arial" font-size="12.00">(17) AWS API call</text>
</g>
<!-- server_GitHubMCPServer_b6d21685ee -->
<g id="node4" class="node">
<title>server_GitHubMCPServer_b6d21685ee</title>
<ellipse fill="none" stroke="black" cx="410.72" cy="-508" rx="72.24" ry="72.24"/>
<text xml:space="preserve" text-anchor="middle" x="410.72" y="-502.57" font-family="Arial" font-size="14.00">GitHub MCP Server</text>
</g>
<!-- externalentity_GitHub_9345ab4c19 -->
<g id="node18" class="node">
<title>externalentity_GitHub_9345ab4c19</title>
<polygon fill="none" stroke="black" points="104.49,-237.81 58.86,-237.81 58.86,-192.19 104.49,-192.19 104.49,-237.81"/>
<text xml:space="preserve" text-anchor="middle" x="81.68" y="-209.57" font-family="Arial" font-size="14.00">GitHub</text>
</g>
<!-- server_GitHubMCPServer_b6d21685ee&#45;&gt;externalentity_GitHub_9345ab4c19 -->
<g id="edge18" class="edge">
<title>server_GitHubMCPServer_b6d21685ee&#45;&gt;externalentity_GitHub_9345ab4c19</title>
<path fill="none" stroke="black" d="M339.84,-491.85C282.82,-477.32 208.37,-454.8 187.35,-432 138.26,-378.74 184.57,-336.14 147.35,-274 138.89,-259.87 126,-247.13 113.95,-237.13"/>
<polygon fill="black" stroke="black" points="116.19,-234.44 106.17,-230.99 111.85,-239.93 116.19,-234.44"/>
<text xml:space="preserve" text-anchor="middle" x="237.98" y="-494.33" font-family="Arial" font-size="12.00">(19) Create branch</text>
<text xml:space="preserve" text-anchor="middle" x="237.98" y="-480.08" font-family="Arial" font-size="12.00">+ PR</text>
</g>
<!-- server_AgentRuntimeplannerexecutor_b2e5892d06&#45;&gt;server_ObservabilityMCPServer_a22abb380b -->
<g id="edge8" class="edge">
<title>server_AgentRuntimeplannerexecutor_b2e5892d06&#45;&gt;server_ObservabilityMCPServer_a22abb380b</title>
<path fill="none" stroke="black" d="M144.57,-1074.06C194.59,-1090.27 265.62,-1113.3 321.58,-1131.43"/>
<polygon fill="black" stroke="black" points="320.17,-1134.65 330.76,-1134.41 322.33,-1128 320.17,-1134.65"/>
<text xml:space="preserve" text-anchor="middle" x="237.98" y="-1136.71" font-family="Arial" font-size="12.00">(9) query_logs /</text>
<text xml:space="preserve" text-anchor="middle" x="237.98" y="-1122.46" font-family="Arial" font-size="12.00">query_metrics</text>
</g>
<!-- server_AgentRuntimeplannerexecutor_b2e5892d06&#45;&gt;server_KubernetesMCPServer_4c7b12dcc9 -->
<g id="edge13" class="edge">
<title>server_AgentRuntimeplannerexecutor_b2e5892d06&#45;&gt;server_KubernetesMCPServer_4c7b12dcc9</title>
<path fill="none" stroke="black" d="M133.68,-1013.58C150.08,-1002.16 168.81,-990.63 187.35,-982.5 230.74,-963.46 282.11,-950.98 324.53,-943.07"/>
<polygon fill="black" stroke="black" points="324.97,-946.55 334.19,-941.33 323.73,-939.66 324.97,-946.55"/>
<text xml:space="preserve" text-anchor="middle" x="237.98" y="-999.6" font-family="Arial" font-size="12.00">(14) rollout_undo</text>
<text xml:space="preserve" text-anchor="middle" x="237.98" y="-985.35" font-family="Arial" font-size="12.00">/ scale / restart</text>
</g>
<!-- server_AgentRuntimeplannerexecutor_b2e5892d06&#45;&gt;server_AWSMCPServer_96ac87fabf -->
<g id="edge15" class="edge">
<title>server_AgentRuntimeplannerexecutor_b2e5892d06&#45;&gt;server_AWSMCPServer_96ac87fabf</title>
<path fill="none" stroke="black" d="M113.17,-996.04C132.05,-963.07 158.22,-922.14 187.35,-890.25 234.34,-838.81 298.02,-791.21 345.19,-759.14"/>
<polygon fill="black" stroke="black" points="347.1,-762.07 353.44,-753.58 343.19,-756.27 347.1,-762.07"/>
<text xml:space="preserve" text-anchor="middle" x="237.98" y="-921.6" font-family="Arial" font-size="12.00">(16) aws_cli</text>
<text xml:space="preserve" text-anchor="middle" x="237.98" y="-907.35" font-family="Arial" font-size="12.00">(arbitrary</text>
<text xml:space="preserve" text-anchor="middle" x="237.98" y="-893.1" font-family="Arial" font-size="12.00">command)</text>
</g>
<!-- server_AgentRuntimeplannerexecutor_b2e5892d06&#45;&gt;server_GitHubMCPServer_b6d21685ee -->
<g id="edge17" class="edge">
<title>server_AgentRuntimeplannerexecutor_b2e5892d06&#45;&gt;server_GitHubMCPServer_b6d21685ee</title>
<path fill="none" stroke="black" d="M97.44,-989.91C113.57,-927.44 143.17,-831.2 187.35,-756.5 231.19,-682.39 299.14,-610.52 348.39,-563.3"/>
<polygon fill="black" stroke="black" points="350.51,-566.12 355.34,-556.69 345.68,-561.05 350.51,-566.12"/>
<text xml:space="preserve" text-anchor="middle" x="237.98" y="-773.6" font-family="Arial" font-size="12.00">(18)</text>
<text xml:space="preserve" text-anchor="middle" x="237.98" y="-759.35" font-family="Arial" font-size="12.00">open_pull_request</text>
</g>
<!-- process_ScriptRunner_990b886585 -->
<g id="node6" class="node">
<title>process_ScriptRunner_990b886585</title>
<ellipse fill="none" stroke="black" cx="410.72" cy="-1364" rx="49.89" ry="49.89"/>
<text xml:space="preserve" text-anchor="middle" x="410.72" y="-1358.58" font-family="Arial" font-size="14.00">Script Runner</text>
</g>
<!-- server_AgentRuntimeplannerexecutor_b2e5892d06&#45;&gt;process_ScriptRunner_990b886585 -->
<g id="edge11" class="edge">
<title>server_AgentRuntimeplannerexecutor_b2e5892d06&#45;&gt;process_ScriptRunner_990b886585</title>
<path fill="none" stroke="black" d="M126.44,-1102.47C144.9,-1122.47 166.83,-1145.69 187.35,-1166 244.42,-1222.49 260.43,-1234.83 320.6,-1288 334.36,-1300.15 349.49,-1313.19 363.32,-1324.97"/>
<polygon fill="black" stroke="black" points="360.7,-1327.33 370.59,-1331.14 365.23,-1322 360.7,-1327.33"/>
<text xml:space="preserve" text-anchor="middle" x="237.98" y="-1275.03" font-family="Arial" font-size="12.00">(12) Run</text>
<text xml:space="preserve" text-anchor="middle" x="237.98" y="-1260.78" font-family="Arial" font-size="12.00">diagnostic script</text>
</g>
<!-- datastore_IncidentMemory_9df04f8dae -->
<g id="node7" class="node">
<title>datastore_IncidentMemory_9df04f8dae</title>
<image xlink:href="/Library/Frameworks/Python.framework/Versions/3.12/lib/python3.12/site-packages/pytm/images/datastore_black.png" width="49.6px" height="36px" preserveAspectRatio="xMinYMin meet" x="385.918" y="-1522"/>
<text xml:space="preserve" text-anchor="middle" x="387.09" y="-1472.7" font-family="Arial" font-size="14.00">Incident Memory</text>
</g>
<!-- server_AgentRuntimeplannerexecutor_b2e5892d06&#45;&gt;datastore_IncidentMemory_9df04f8dae -->
<g id="edge20" class="edge">
<title>server_AgentRuntimeplannerexecutor_b2e5892d06&#45;&gt;datastore_IncidentMemory_9df04f8dae</title>
<path fill="none" stroke="black" d="M97.98,-1117.9C113.45,-1172.06 141.69,-1249.41 187.35,-1304 221.74,-1345.11 254.59,-1328.08 288.6,-1369.5 313.03,-1399.26 295.73,-1420.61 320.6,-1450 337.28,-1469.72 363.08,-1484.24 382.63,-1493.23"/>
<polygon fill="black" stroke="black" points="381.08,-1496.37 391.64,-1497.16 383.88,-1489.95 381.08,-1496.37"/>
<text xml:space="preserve" text-anchor="middle" x="237.98" y="-1386.6" font-family="Arial" font-size="12.00">(21) Write</text>
<text xml:space="preserve" text-anchor="middle" x="237.98" y="-1372.35" font-family="Arial" font-size="12.00">incident lesson</text>
</g>
<!-- datastore_AgentTraceStore_65d0d57a00 -->
<g id="node8" class="node">
<title>datastore_AgentTraceStore_65d0d57a00</title>
<image xlink:href="/Library/Frameworks/Python.framework/Versions/3.12/lib/python3.12/site-packages/pytm/images/datastore_black.png" width="49.6px" height="36px" preserveAspectRatio="xMinYMin meet" x="385.918" y="-1630"/>
<text xml:space="preserve" text-anchor="middle" x="382.97" y="-1580.7" font-family="Arial" font-size="14.00">Agent Trace Store</text>
</g>
<!-- server_AgentRuntimeplannerexecutor_b2e5892d06&#45;&gt;datastore_AgentTraceStore_65d0d57a00 -->
<g id="edge21" class="edge">
<title>server_AgentRuntimeplannerexecutor_b2e5892d06&#45;&gt;datastore_AgentTraceStore_65d0d57a00</title>
<path fill="none" stroke="black" d="M89.72,-1119.41C103.21,-1233.53 136,-1462.63 187.35,-1523 237.91,-1582.44 333.84,-1602.56 381.45,-1609.07"/>
<polygon fill="black" stroke="black" points="380.87,-1612.52 391.22,-1610.29 381.73,-1605.57 380.87,-1612.52"/>
<text xml:space="preserve" text-anchor="middle" x="237.98" y="-1602.27" font-family="Arial" font-size="12.00">(22) Append task</text>
<text xml:space="preserve" text-anchor="middle" x="237.98" y="-1588.02" font-family="Arial" font-size="12.00">trace</text>
</g>
<!-- externalentity_FoundationModelAPI_86e4604564 -->
<g id="node10" class="node">
<title>externalentity_FoundationModelAPI_86e4604564</title>
<polygon fill="none" stroke="black" points="466.53,-1813.82 354.9,-1813.82 354.9,-1702.18 466.53,-1702.18 466.53,-1813.82"/>
<text xml:space="preserve" text-anchor="middle" x="410.72" y="-1760.45" font-family="Arial" font-size="14.00">Foundation Model</text>
<text xml:space="preserve" text-anchor="middle" x="410.72" y="-1744.7" font-family="Arial" font-size="14.00">API</text>
</g>
<!-- server_AgentRuntimeplannerexecutor_b2e5892d06&#45;&gt;externalentity_FoundationModelAPI_86e4604564 -->
<g id="edge7" class="edge">
<title>server_AgentRuntimeplannerexecutor_b2e5892d06&#45;&gt;externalentity_FoundationModelAPI_86e4604564</title>
<path fill="none" stroke="black" d="M88.55,-1130.97C100.38,-1269.19 130.91,-1552.48 187.35,-1632 225.23,-1685.38 293.29,-1719.07 344.17,-1738.05"/>
<polygon fill="none" stroke="black" points="92.05,-1130.84 87.72,-1121.17 85.07,-1131.43 92.05,-1130.84"/>
<polygon fill="black" stroke="black" points="342.73,-1741.25 353.32,-1741.36 345.11,-1734.67 342.73,-1741.25"/>
<text xml:space="preserve" text-anchor="middle" x="237.98" y="-1744.7" font-family="Arial" font-size="12.00">(7) Reasoning step</text>
<text xml:space="preserve" text-anchor="middle" x="237.98" y="-1730.45" font-family="Arial" font-size="12.00"> &#160;&#160;&#160;(8) Plan + tool</text>
<text xml:space="preserve" text-anchor="middle" x="237.98" y="-1716.2" font-family="Arial" font-size="12.00">calls</text>
</g>
<!-- externalentity_Slackchatapprovals_c76a0a7067 -->
<g id="node16" class="node">
<title>externalentity_Slackchatapprovals_c76a0a7067</title>
<polygon fill="none" stroke="black" points="451.53,-351.81 369.9,-351.81 369.9,-270.19 451.53,-270.19 451.53,-351.81"/>
<text xml:space="preserve" text-anchor="middle" x="410.72" y="-313.45" font-family="Arial" font-size="14.00">Slack (chat +</text>
<text xml:space="preserve" text-anchor="middle" x="410.72" y="-297.7" font-family="Arial" font-size="14.00">approvals)</text>
</g>
<!-- server_AgentRuntimeplannerexecutor_b2e5892d06&#45;&gt;externalentity_Slackchatapprovals_c76a0a7067 -->
<g id="edge12" class="edge">
<title>server_AgentRuntimeplannerexecutor_b2e5892d06&#45;&gt;externalentity_Slackchatapprovals_c76a0a7067</title>
<path fill="none" stroke="black" d="M89.38,-988.35C108.1,-808.26 161.2,-318.29 187.35,-295.5 234.1,-254.76 309.45,-271.09 359.28,-289.02"/>
<polygon fill="black" stroke="black" points="357.8,-292.2 368.4,-292.43 360.26,-285.65 357.8,-292.2"/>
<text xml:space="preserve" text-anchor="middle" x="237.98" y="-312.6" font-family="Arial" font-size="12.00">(13) Approval</text>
<text xml:space="preserve" text-anchor="middle" x="237.98" y="-298.35" font-family="Arial" font-size="12.00">request + findings</text>
</g>
<!-- process_ScriptRunner_990b886585&#45;&gt;server_EKSAPIprod_21633ce29f -->
<g id="edge19" class="edge">
<title>process_ScriptRunner_990b886585&#45;&gt;server_EKSAPIprod_21633ce29f</title>
<path fill="none" stroke="black" d="M455.08,-1340.71C474.75,-1327.83 496.36,-1309.97 508.83,-1288 550.75,-1214.17 490.51,-1172.09 532.83,-1098.5 569.53,-1034.7 641.15,-987.12 692.5,-959.28"/>
<polygon fill="black" stroke="black" points="693.96,-962.47 701.15,-954.69 690.68,-956.29 693.96,-962.47"/>
<text xml:space="preserve" text-anchor="middle" x="580.46" y="-1115.6" font-family="Arial" font-size="12.00">(20) kubectl from</text>
<text xml:space="preserve" text-anchor="middle" x="580.46" y="-1101.35" font-family="Arial" font-size="12.00">script</text>
</g>
<!-- datastore_IncidentMemory_9df04f8dae&#45;&gt;server_AgentRuntimeplannerexecutor_b2e5892d06 -->
<g id="edge6" class="edge">
<title>datastore_IncidentMemory_9df04f8dae&#45;&gt;server_AgentRuntimeplannerexecutor_b2e5892d06</title>
<path fill="none" stroke="black" d="M392.97,-1502.34C351.7,-1497.34 244.32,-1478.68 187.35,-1416 115.49,-1336.93 92.71,-1211.42 85.64,-1130.9"/>
<polygon fill="black" stroke="black" points="89.17,-1131.04 84.87,-1121.35 82.19,-1131.6 89.17,-1131.04"/>
<text xml:space="preserve" text-anchor="middle" x="237.98" y="-1493.9" font-family="Arial" font-size="12.00">(6) Recall similar</text>
<text xml:space="preserve" text-anchor="middle" x="237.98" y="-1479.65" font-family="Arial" font-size="12.00">incidents</text>
</g>
<!-- actor_InternetClient_2c440ebe53 -->
<g id="node9" class="node">
<title>actor_InternetClient_2c440ebe53</title>
<polygon fill="none" stroke="black" points="454.16,-1972.44 367.28,-1972.44 367.28,-1885.56 454.16,-1885.56 454.16,-1972.44"/>
<text xml:space="preserve" text-anchor="middle" x="410.72" y="-1923.58" font-family="Arial" font-size="14.00">Internet Client</text>
</g>
<!-- server_ProductionServices_385a5311c0 -->
<g id="node11" class="node">
<title>server_ProductionServices_385a5311c0</title>
<ellipse fill="none" stroke="black" cx="752.85" cy="-1106" rx="47.64" ry="47.64"/>
<text xml:space="preserve" text-anchor="middle" x="752.85" y="-1108.45" font-family="Arial" font-size="14.00">Production</text>
<text xml:space="preserve" text-anchor="middle" x="752.85" y="-1092.7" font-family="Arial" font-size="14.00">Services</text>
</g>
<!-- actor_InternetClient_2c440ebe53&#45;&gt;server_ProductionServices_385a5311c0 -->
<g id="edge1" class="edge">
<title>actor_InternetClient_2c440ebe53&#45;&gt;server_ProductionServices_385a5311c0</title>
<path fill="none" stroke="black" d="M454.6,-1907.84C473.92,-1896.24 495.36,-1880.1 508.83,-1860 674.46,-1612.9 522.64,-1471.82 660.08,-1208 672.3,-1184.55 691.18,-1162.26 708.64,-1144.53"/>
<polygon fill="black" stroke="black" points="710.81,-1147.31 715.46,-1137.78 705.89,-1142.33 710.81,-1147.31"/>
<text xml:space="preserve" text-anchor="middle" x="580.46" y="-1819.47" font-family="Arial" font-size="12.00">(1) Public request</text>
</g>
<!-- datastore_LogMetricsPlatform_2a2f1d5596 -->
<g id="node12" class="node">
<title>datastore_LogMetricsPlatform_2a2f1d5596</title>
<image xlink:href="/Library/Frameworks/Python.framework/Versions/3.12/lib/python3.12/site-packages/pytm/images/datastore_black.png" width="49.6px" height="36px" preserveAspectRatio="xMinYMin meet" x="992.571" y="-1146"/>
<text xml:space="preserve" text-anchor="middle" x="948.75" y="-1096.7" font-family="Arial" font-size="14.00">Log &amp; Metrics</text>
<text xml:space="preserve" text-anchor="middle" x="948.75" y="-1080.95" font-family="Arial" font-size="14.00">Platform</text>
</g>
<!-- server_ProductionServices_385a5311c0&#45;&gt;datastore_LogMetricsPlatform_2a2f1d5596 -->
<g id="edge2" class="edge">
<title>server_ProductionServices_385a5311c0&#45;&gt;datastore_LogMetricsPlatform_2a2f1d5596</title>
<path fill="none" stroke="black" d="M800.79,-1109.93C855.25,-1114.5 943.3,-1121.88 988.15,-1125.64"/>
<polygon fill="black" stroke="black" points="987.83,-1129.12 998.09,-1126.47 988.41,-1122.14 987.83,-1129.12"/>
<text xml:space="preserve" text-anchor="middle" x="914" y="-1139.2" font-family="Arial" font-size="12.00">(2) Emit logs /</text>
<text xml:space="preserve" text-anchor="middle" x="914" y="-1124.95" font-family="Arial" font-size="12.00">metrics</text>
</g>
<!-- datastore_LogMetricsPlatform_2a2f1d5596&#45;&gt;server_ObservabilityMCPServer_a22abb380b -->
<g id="edge9" class="edge">
<title>datastore_LogMetricsPlatform_2a2f1d5596&#45;&gt;server_ObservabilityMCPServer_a22abb380b</title>
<path fill="none" stroke="black" d="M999.48,-1140.41C986.57,-1149.4 968.05,-1161.29 950.37,-1169 814.27,-1228.35 775.25,-1237.27 628.08,-1257 586.13,-1262.63 572.78,-1271.02 532.83,-1257 520.77,-1252.76 501,-1238.33 480.89,-1221.84"/>
<polygon fill="black" stroke="black" points="483.36,-1219.35 473.44,-1215.64 478.89,-1224.73 483.36,-1219.35"/>
<text xml:space="preserve" text-anchor="middle" x="752.85" y="-1269.66" font-family="Arial" font-size="12.00">(10) Fetch log</text>
<text xml:space="preserve" text-anchor="middle" x="752.85" y="-1255.41" font-family="Arial" font-size="12.00">lines</text>
</g>
<!-- actor_OncallEngineer_0291419f72 -->
<g id="node15" class="node">
<title>actor_OncallEngineer_0291419f72</title>
<polygon fill="none" stroke="black" points="133.74,-120.06 29.61,-120.06 29.61,-15.93 133.74,-15.93 133.74,-120.06"/>
<text xml:space="preserve" text-anchor="middle" x="81.68" y="-62.58" font-family="Arial" font-size="14.00">On&#45;call Engineer</text>
</g>
<!-- actor_OncallEngineer_0291419f72&#45;&gt;externalentity_Slackchatapprovals_c76a0a7067 -->
<g id="edge4" class="edge">
<title>actor_OncallEngineer_0291419f72&#45;&gt;externalentity_Slackchatapprovals_c76a0a7067</title>
<path fill="none" stroke="black" d="M133.88,-94.62C176.88,-117.97 239.06,-154.12 288.6,-192.5 315.42,-213.28 342.66,-239.39 364.5,-261.81"/>
<polygon fill="black" stroke="black" points="361.77,-264.02 371.23,-268.79 366.81,-259.17 361.77,-264.02"/>
<text xml:space="preserve" text-anchor="middle" x="237.98" y="-209.6" font-family="Arial" font-size="12.00">(4) Mention @sre&#45;</text>
<text xml:space="preserve" text-anchor="middle" x="237.98" y="-195.35" font-family="Arial" font-size="12.00">agent</text>
</g>
<!-- externalentity_Slackchatapprovals_c76a0a7067&#45;&gt;server_AgentRuntimeplannerexecutor_b2e5892d06 -->
<g id="edge5" class="edge">
<title>externalentity_Slackchatapprovals_c76a0a7067&#45;&gt;server_AgentRuntimeplannerexecutor_b2e5892d06</title>
<path fill="none" stroke="black" d="M369.68,-317.55C318.78,-328.12 232.16,-354.02 187.35,-412.75 120.71,-500.1 94.88,-825.81 86.34,-976.55"/>
<polygon fill="black" stroke="black" points="82.85,-976.28 85.79,-986.46 89.84,-976.67 82.85,-976.28"/>
<text xml:space="preserve" text-anchor="middle" x="237.98" y="-415.6" font-family="Arial" font-size="12.00">(5) Slack event</text>
</g>
<!-- externalentity_PagerDuty_c6f87088c2 -->
<g id="node17" class="node">
<title>externalentity_PagerDuty_c6f87088c2</title>
<polygon fill="none" stroke="black" points="114.99,-376.31 48.36,-376.31 48.36,-309.69 114.99,-309.69 114.99,-376.31"/>
<text xml:space="preserve" text-anchor="middle" x="81.68" y="-337.57" font-family="Arial" font-size="14.00">PagerDuty</text>
</g>
<!-- externalentity_PagerDuty_c6f87088c2&#45;&gt;server_AgentRuntimeplannerexecutor_b2e5892d06 -->
<g id="edge3" class="edge">
<title>externalentity_PagerDuty_c6f87088c2&#45;&gt;server_AgentRuntimeplannerexecutor_b2e5892d06</title>
<path fill="none" stroke="black" d="M81.68,-376.81C81.68,-484.78 81.68,-823.11 81.68,-976.74"/>
<polygon fill="black" stroke="black" points="78.18,-976.41 81.68,-986.41 85.18,-976.41 78.18,-976.41"/>
<text xml:space="preserve" text-anchor="middle" x="71.55" y="-678.04" font-family="Arial" font-size="12.00">(3) Alert webhook</text>
</g>
</g>
</svg>
