<?xml version="1.0" encoding="UTF-8" standalone="no"?>
<!DOCTYPE svg PUBLIC "-//W3C//DTD SVG 1.1//EN"
 "http://www.w3.org/Graphics/SVG/1.1/DTD/svg11.dtd">
<!-- Generated by graphviz version 14.1.5 (20260411.2331)
 -->
<!-- Title: tm Pages: 1 -->
<svg width="1351pt" height="1101pt"
 viewBox="0.00 0.00 1351.00 1101.00" xmlns="http://www.w3.org/2000/svg" xmlns:xlink="http://www.w3.org/1999/xlink">
<g id="graph0" class="graph" transform="scale(1 1) rotate(0) translate(4 1097)">
<title>tm</title>
<polygon fill="white" stroke="none" points="-4,4 -4,-1097 1347.07,-1097 1347.07,4 -4,4"/>
<g id="clust1" class="cluster">
<title>cluster_boundary_AIPlatformVPC_f2eb7a3ff7</title>
<polygon fill="none" stroke="#ee2c2c" stroke-dasharray="5,2" points="8,-555 8,-896 1335.07,-896 1335.07,-555 8,-555"/>
<text xml:space="preserve" text-anchor="start" x="634.78" y="-883.5" font-family="Arial" font-style="italic" font-size="10.00">AI Platform VPC</text>
</g>
<g id="clust2" class="cluster">
<title>cluster_boundary_AIDataStores_d2006ce1bb</title>
<polygon fill="none" stroke="#ee2c2c" stroke-dasharray="5,2" points="334.22,-609 334.22,-789 415.47,-789 415.47,-609 334.22,-609"/>
<text xml:space="preserve" text-anchor="start" x="342.22" y="-776.5" font-family="Arial" font-style="italic" font-size="10.00">AI Data Stores</text>
</g>
<g id="clust3" class="cluster">
<title>cluster_boundary_Internet_acf3059e70</title>
<polygon fill="none" stroke="#ee2c2c" stroke-dasharray="5,2" points="335.28,-939 335.28,-1085 731.77,-1085 731.77,-939 335.28,-939"/>
<text xml:space="preserve" text-anchor="start" x="517.02" y="-1072.5" font-family="Arial" font-style="italic" font-size="10.00">Internet</text>
</g>
<g id="clust4" class="cluster">
<title>cluster_boundary_ModelProvider_88f2d9c06f</title>
<polygon fill="none" stroke="#ee2c2c" stroke-dasharray="5,2" points="916.61,-354 916.61,-502 1044.24,-502 1044.24,-354 916.61,-354"/>
<text xml:space="preserve" text-anchor="start" x="947.8" y="-489.5" font-family="Arial" font-style="italic" font-size="10.00">Model Provider</text>
</g>
<g id="clust5" class="cluster">
<title>cluster_boundary_SupportSaaS_579e9aae81</title>
<polygon fill="none" stroke="#ee2c2c" stroke-dasharray="5,2" points="610.13,-8 610.13,-150 1041.24,-150 1041.24,-8 610.13,-8"/>
<text xml:space="preserve" text-anchor="start" x="795.31" y="-137.5" font-family="Arial" font-style="italic" font-size="10.00">Support SaaS</text>
</g>
<!-- datastore_VectorIndex_9df04f8dae -->
<g id="node1" class="node">
<title>datastore_VectorIndex_9df04f8dae</title>
<image xlink:href="/Library/Frameworks/Python.framework/Versions/3.12/lib/python3.12/site-packages/pytm/images/datastore_black.png" width="49.6px" height="36px" preserveAspectRatio="xMinYMin meet" x="349.541" y="-653"/>
<text xml:space="preserve" text-anchor="middle" x="309.84" y="-603.7" font-family="Arial" font-size="14.00">Vector Index</text>
</g>
<!-- server_RAGOrchestrator_b2e5892d06 -->
<g id="node5" class="node">
<title>server_RAGOrchestrator_b2e5892d06</title>
<ellipse fill="none" stroke="black" cx="668.7" cy="-629" rx="65.67" ry="65.67"/>
<text xml:space="preserve" text-anchor="middle" x="668.7" y="-623.58" font-family="Arial" font-size="14.00">RAG Orchestrator</text>
</g>
<!-- datastore_VectorIndex_9df04f8dae&#45;&gt;server_RAGOrchestrator_b2e5892d06 -->
<g id="edge5" class="edge">
<title>datastore_VectorIndex_9df04f8dae&#45;&gt;server_RAGOrchestrator_b2e5892d06</title>
<path fill="none" stroke="black" d="M392.32,-634.65C430.22,-633.87 523.69,-631.96 591.23,-630.57"/>
<polygon fill="black" stroke="black" points="591.23,-634.07 601.16,-630.37 591.09,-627.07 591.23,-634.07"/>
<text xml:space="preserve" text-anchor="middle" x="511.28" y="-636.08" font-family="Arial" font-size="12.00">(6) Top&#45;k passages</text>
</g>
<!-- datastore_ConversationStore_65d0d57a00 -->
<g id="node2" class="node">
<title>datastore_ConversationStore_65d0d57a00</title>
<image xlink:href="/Library/Frameworks/Python.framework/Versions/3.12/lib/python3.12/site-packages/pytm/images/datastore_black.png" width="49.6px" height="36px" preserveAspectRatio="xMinYMin meet" x="349.541" y="-761"/>
<text xml:space="preserve" text-anchor="middle" x="289.59" y="-711.7" font-family="Arial" font-size="14.00">Conversation Store</text>
</g>
<!-- server_ChatAPI_9345ab4c19 -->
<g id="node3" class="node">
<title>server_ChatAPI_9345ab4c19</title>
<ellipse fill="none" stroke="black" cx="980.43" cy="-827" rx="32.8" ry="32.8"/>
<text xml:space="preserve" text-anchor="middle" x="980.43" y="-821.58" font-family="Arial" font-size="14.00">Chat API</text>
</g>
<!-- server_ChatAPI_9345ab4c19&#45;&gt;datastore_ConversationStore_65d0d57a00 -->
<g id="edge9" class="edge">
<title>server_ChatAPI_9345ab4c19&#45;&gt;datastore_ConversationStore_65d0d57a00</title>
<path fill="none" stroke="black" d="M947.39,-827.84C929.02,-828.29 905.52,-828.78 884.61,-829 835.62,-829.52 823.09,-834.19 774.36,-829 632.73,-813.91 467.53,-769.5 403.08,-751.12"/>
<polygon fill="black" stroke="black" points="404.28,-747.82 393.7,-748.42 402.34,-754.55 404.28,-747.82"/>
<text xml:space="preserve" text-anchor="middle" x="668.7" y="-840.81" font-family="Arial" font-size="12.00">(11) Store</text>
<text xml:space="preserve" text-anchor="middle" x="668.7" y="-826.56" font-family="Arial" font-size="12.00">transcript</text>
</g>
<!-- server_GuardrailService_86e4604564 -->
<g id="node4" class="node">
<title>server_GuardrailService_86e4604564</title>
<ellipse fill="none" stroke="black" cx="1264.03" cy="-805" rx="63.04" ry="63.04"/>
<text xml:space="preserve" text-anchor="middle" x="1264.03" y="-799.58" font-family="Arial" font-size="14.00">Guardrail Service</text>
</g>
<!-- server_ChatAPI_9345ab4c19&#45;&gt;server_GuardrailService_86e4604564 -->
<g id="edge3" class="edge">
<title>server_ChatAPI_9345ab4c19&#45;&gt;server_GuardrailService_86e4604564</title>
<path fill="none" stroke="black" d="M1024.78,-823.61C1068.62,-820.19 1137.2,-814.83 1189.54,-810.74"/>
<polygon fill="none" stroke="black" points="1024.66,-820.11 1014.97,-824.38 1025.21,-827.09 1024.66,-820.11"/>
<polygon fill="black" stroke="black" points="1189.58,-814.25 1199.28,-809.98 1189.04,-807.27 1189.58,-814.25"/>
<text xml:space="preserve" text-anchor="middle" x="1118.62" y="-836.36" font-family="Arial" font-size="12.00">(3) Screen input</text>
<text xml:space="preserve" text-anchor="middle" x="1118.62" y="-822.11" font-family="Arial" font-size="12.00"> &#160;&#160;&#160;(4) Verdict</text>
</g>
<!-- server_ChatAPI_9345ab4c19&#45;&gt;server_RAGOrchestrator_b2e5892d06 -->
<g id="edge4" class="edge">
<title>server_ChatAPI_9345ab4c19&#45;&gt;server_RAGOrchestrator_b2e5892d06</title>
<path fill="none" stroke="black" d="M948.15,-818.86C906.02,-806.89 829.93,-781.7 774.36,-743 753.24,-728.28 733.26,-708.61 716.54,-689.76"/>
<polygon fill="black" stroke="black" points="719.28,-687.57 710.08,-682.31 713.99,-692.16 719.28,-687.57"/>
<text xml:space="preserve" text-anchor="middle" x="829.49" y="-799.74" font-family="Arial" font-size="12.00">(5) Answer request</text>
</g>
<!-- process_ChatWidgetbrowser_0291419f72 -->
<g id="node8" class="node">
<title>process_ChatWidgetbrowser_0291419f72</title>
<ellipse fill="none" stroke="black" cx="668.7" cy="-1002" rx="55.07" ry="55.07"/>
<text xml:space="preserve" text-anchor="middle" x="668.7" y="-1004.45" font-family="Arial" font-size="14.00">Chat Widget</text>
<text xml:space="preserve" text-anchor="middle" x="668.7" y="-988.7" font-family="Arial" font-size="14.00">(browser)</text>
</g>
<!-- server_ChatAPI_9345ab4c19&#45;&gt;process_ChatWidgetbrowser_0291419f72 -->
<g id="edge8" class="edge">
<title>server_ChatAPI_9345ab4c19&#45;&gt;process_ChatWidgetbrowser_0291419f72</title>
<path fill="none" stroke="black" d="M948.82,-836.47C907.45,-849.99 832.23,-877.19 774.36,-912.75 754.26,-925.11 734.08,-941.22 716.87,-956.36"/>
<polygon fill="black" stroke="black" points="714.93,-953.4 709.81,-962.68 719.6,-958.62 714.93,-953.4"/>
<text xml:space="preserve" text-anchor="middle" x="829.49" y="-915.6" font-family="Arial" font-size="12.00">(10) Stream answer</text>
</g>
<!-- server_RAGOrchestrator_b2e5892d06&#45;&gt;server_ChatAPI_9345ab4c19 -->
<g id="edge7" class="edge">
<title>server_RAGOrchestrator_b2e5892d06&#45;&gt;server_ChatAPI_9345ab4c19</title>
<path fill="none" stroke="black" d="M733.74,-638.14C779.19,-647.1 839.84,-664.31 884.61,-696.5 917.46,-720.12 943.43,-758.64 959.82,-787.72"/>
<polygon fill="black" stroke="black" points="956.62,-789.16 964.49,-796.25 962.76,-785.79 956.62,-789.16"/>
<text xml:space="preserve" text-anchor="middle" x="829.49" y="-713.6" font-family="Arial" font-size="12.00">(9) Answer +</text>
<text xml:space="preserve" text-anchor="middle" x="829.49" y="-699.35" font-family="Arial" font-size="12.00">citations</text>
</g>
<!-- externalentity_FoundationModelAPI_c76a0a7067 -->
<g id="node9" class="node">
<title>externalentity_FoundationModelAPI_c76a0a7067</title>
<polygon fill="none" stroke="black" points="1036.24,-473.81 924.61,-473.81 924.61,-362.19 1036.24,-362.19 1036.24,-473.81"/>
<text xml:space="preserve" text-anchor="middle" x="980.43" y="-420.45" font-family="Arial" font-size="14.00">Foundation Model</text>
<text xml:space="preserve" text-anchor="middle" x="980.43" y="-404.7" font-family="Arial" font-size="14.00">API</text>
</g>
<!-- server_RAGOrchestrator_b2e5892d06&#45;&gt;externalentity_FoundationModelAPI_c76a0a7067 -->
<g id="edge6" class="edge">
<title>server_RAGOrchestrator_b2e5892d06&#45;&gt;externalentity_FoundationModelAPI_c76a0a7067</title>
<path fill="none" stroke="black" d="M740.01,-599.47C783.72,-579.44 839.9,-550.55 884.61,-517 898.2,-506.81 911.58,-494.6 923.81,-482.3"/>
<polygon fill="none" stroke="black" points="738.8,-596.18 731.13,-603.49 741.69,-602.55 738.8,-596.18"/>
<polygon fill="black" stroke="black" points="926.15,-484.91 930.62,-475.31 921.14,-480.03 926.15,-484.91"/>
<text xml:space="preserve" text-anchor="middle" x="829.49" y="-612.9" font-family="Arial" font-size="12.00">(7) Chat</text>
<text xml:space="preserve" text-anchor="middle" x="829.49" y="-598.65" font-family="Arial" font-size="12.00">completion request</text>
<text xml:space="preserve" text-anchor="middle" x="829.49" y="-584.4" font-family="Arial" font-size="12.00"> &#160;&#160;&#160;(8) Completion</text>
</g>
<!-- externalentity_Helpdeskticketshelpcenter_c6f87088c2 -->
<g id="node11" class="node">
<title>externalentity_Helpdeskticketshelpcenter_c6f87088c2</title>
<polygon fill="none" stroke="black" points="1033.24,-121.81 927.61,-121.81 927.61,-16.19 1033.24,-16.19 1033.24,-121.81"/>
<text xml:space="preserve" text-anchor="middle" x="980.43" y="-71.45" font-family="Arial" font-size="14.00">Helpdesk (tickets</text>
<text xml:space="preserve" text-anchor="middle" x="980.43" y="-55.7" font-family="Arial" font-size="14.00">+ help center)</text>
</g>
<!-- server_RAGOrchestrator_b2e5892d06&#45;&gt;externalentity_Helpdeskticketshelpcenter_c6f87088c2 -->
<g id="edge10" class="edge">
<title>server_RAGOrchestrator_b2e5892d06&#45;&gt;externalentity_Helpdeskticketshelpcenter_c6f87088c2</title>
<path fill="none" stroke="black" d="M706.5,-574.77C751.31,-507.6 828.03,-388.95 884.61,-282 910.53,-233.02 935.84,-175.51 953.79,-132.61"/>
<polygon fill="black" stroke="black" points="957,-134 957.6,-123.43 950.53,-131.32 957,-134"/>
<text xml:space="preserve" text-anchor="middle" x="829.49" y="-481.6" font-family="Arial" font-size="12.00">(12) create_ticket</text>
<text xml:space="preserve" text-anchor="middle" x="829.49" y="-467.35" font-family="Arial" font-size="12.00">tool call</text>
</g>
<!-- process_IngestionEmbeddingJob_990b886585 -->
<g id="node6" class="node">
<title>process_IngestionEmbeddingJob_990b886585</title>
<ellipse fill="none" stroke="black" cx="84.86" cy="-632" rx="68.86" ry="68.86"/>
<text xml:space="preserve" text-anchor="middle" x="84.86" y="-634.45" font-family="Arial" font-size="14.00">Ingestion &amp;</text>
<text xml:space="preserve" text-anchor="middle" x="84.86" y="-618.7" font-family="Arial" font-size="14.00">Embedding Job</text>
</g>
<!-- process_IngestionEmbeddingJob_990b886585&#45;&gt;datastore_VectorIndex_9df04f8dae -->
<g id="edge14" class="edge">
<title>process_IngestionEmbeddingJob_990b886585&#45;&gt;datastore_VectorIndex_9df04f8dae</title>
<path fill="none" stroke="black" d="M153.99,-632.71C214.87,-633.35 301.05,-634.25 345.07,-634.7"/>
<polygon fill="black" stroke="black" points="345.01,-638.2 355.05,-634.81 345.08,-631.2 345.01,-638.2"/>
<text xml:space="preserve" text-anchor="middle" x="243.97" y="-636.96" font-family="Arial" font-size="12.00">(16) Upsert chunks</text>
</g>
<!-- process_IngestionEmbeddingJob_990b886585&#45;&gt;externalentity_FoundationModelAPI_c76a0a7067 -->
<g id="edge13" class="edge">
<title>process_IngestionEmbeddingJob_990b886585&#45;&gt;externalentity_FoundationModelAPI_c76a0a7067</title>
<path fill="none" stroke="black" d="M148.36,-605.03C267.43,-555.28 536.15,-450.81 774.36,-414 820.26,-406.91 872.63,-408.08 912.95,-410.94"/>
<polygon fill="black" stroke="black" points="912.51,-414.41 922.74,-411.69 913.04,-407.43 912.51,-414.41"/>
<text xml:space="preserve" text-anchor="middle" x="511.28" y="-492.18" font-family="Arial" font-size="12.00">(15) Embed chunks</text>
</g>
<!-- actor_Customer_f8af758679 -->
<g id="node7" class="node">
<title>actor_Customer_f8af758679</title>
<polygon fill="none" stroke="black" points="405.41,-1050.07 343.28,-1050.07 343.28,-987.93 405.41,-987.93 405.41,-1050.07"/>
<text xml:space="preserve" text-anchor="middle" x="374.34" y="-1013.58" font-family="Arial" font-size="14.00">Customer</text>
</g>
<!-- actor_Customer_f8af758679&#45;&gt;process_ChatWidgetbrowser_0291419f72 -->
<g id="edge1" class="edge">
<title>actor_Customer_f8af758679&#45;&gt;process_ChatWidgetbrowser_0291419f72</title>
<path fill="none" stroke="black" d="M405.8,-1017.23C451.9,-1014.55 540.49,-1009.4 601.79,-1005.83"/>
<polygon fill="black" stroke="black" points="601.99,-1009.33 611.77,-1005.25 601.58,-1002.34 601.99,-1009.33"/>
<text xml:space="preserve" text-anchor="middle" x="511.28" y="-1016.83" font-family="Arial" font-size="12.00">(1) Type question</text>
</g>
<!-- process_ChatWidgetbrowser_0291419f72&#45;&gt;server_ChatAPI_9345ab4c19 -->
<g id="edge2" class="edge">
<title>process_ChatWidgetbrowser_0291419f72&#45;&gt;server_ChatAPI_9345ab4c19</title>
<path fill="none" stroke="black" d="M723.42,-992.61C769.07,-982.81 834.91,-964.25 884.61,-932 912.5,-913.9 937.41,-885.59 954.68,-862.92"/>
<polygon fill="black" stroke="black" points="957.32,-865.25 960.48,-855.13 951.7,-861.07 957.32,-865.25"/>
<text xml:space="preserve" text-anchor="middle" x="829.49" y="-981.45" font-family="Arial" font-size="12.00">(2) POST /messages</text>
</g>
<!-- actor_SupportContentAuthor_2c440ebe53 -->
<g id="node10" class="node">
<title>actor_SupportContentAuthor_2c440ebe53</title>
<polygon fill="none" stroke="black" points="719.26,-117.56 618.13,-117.56 618.13,-16.44 719.26,-16.44 719.26,-117.56"/>
<text xml:space="preserve" text-anchor="middle" x="668.7" y="-69.45" font-family="Arial" font-size="14.00">Support Content</text>
<text xml:space="preserve" text-anchor="middle" x="668.7" y="-53.7" font-family="Arial" font-size="14.00">Author</text>
</g>
<!-- actor_SupportContentAuthor_2c440ebe53&#45;&gt;externalentity_Helpdeskticketshelpcenter_c6f87088c2 -->
<g id="edge11" class="edge">
<title>actor_SupportContentAuthor_2c440ebe53&#45;&gt;externalentity_Helpdeskticketshelpcenter_c6f87088c2</title>
<path fill="none" stroke="black" d="M719.46,-67.32C772.85,-67.67 857.78,-68.21 915.94,-68.59"/>
<polygon fill="black" stroke="black" points="915.67,-72.09 925.69,-68.65 915.71,-65.09 915.67,-72.09"/>
<text xml:space="preserve" text-anchor="middle" x="829.49" y="-85.45" font-family="Arial" font-size="12.00">(13) Publish</text>
<text xml:space="preserve" text-anchor="middle" x="829.49" y="-71.2" font-family="Arial" font-size="12.00">article / macro</text>
</g>
<!-- externalentity_Helpdeskticketshelpcenter_c6f87088c2&#45;&gt;process_IngestionEmbeddingJob_990b886585 -->
<g id="edge12" class="edge">
<title>externalentity_Helpdeskticketshelpcenter_c6f87088c2&#45;&gt;process_IngestionEmbeddingJob_990b886585</title>
<path fill="none" stroke="black" d="M927.28,-94.36C797.47,-158.56 451.72,-336.28 193.72,-530 175.9,-543.38 157.82,-559.35 141.69,-574.64"/>
<polygon fill="black" stroke="black" points="139.32,-572.05 134.53,-581.5 144.17,-577.1 139.32,-572.05"/>
<text xml:space="preserve" text-anchor="middle" x="511.28" y="-379.23" font-family="Arial" font-size="12.00">(14) Export</text>
<text xml:space="preserve" text-anchor="middle" x="511.28" y="-364.98" font-family="Arial" font-size="12.00">articles, macros,</text>
<text xml:space="preserve" text-anchor="middle" x="511.28" y="-350.73" font-family="Arial" font-size="12.00">resolved tickets</text>
</g>
</g>
</svg>
